<?xml version="1.0" encoding="UTF-8"?>
<svg version="1.1" xmlns="http://www.w3.org/2000/svg" width="500" height="500">
<path d="M0 0 C1.75 2.5625 1.75 2.5625 3 5 C3.5775 4.195625 4.155 3.39125 4.75 2.5625 C6.97328219 0.03042862 7.7203912 -0.78135941 11 -1 C11.66 -0.67 12.32 -0.34 13 0 C13.20140476 3.62528568 12.85776765 5.86501708 11 9 C14.96 9.495 14.96 9.495 19 10 C19 11.98 19 13.96 19 16 C16.03 16.33 13.06 16.66 10 17 C10.7425 17.8353125 10.7425 17.8353125 11.5 18.6875 C13.24754367 21.38162983 13.26218749 22.85375007 13 26 C11.35 26.33 9.7 26.66 8 27 C6.02 24.03 6.02 24.03 4 21 C1.9754262 22.93254772 0.57894208 24.63158688 -1 27 C-2.65 26.67 -4.3 26.34 -6 26 C-6.60920288 27.03833984 -6.60920288 27.03833984 -7.23071289 28.09765625 C-14.44996724 40.38505987 -21.70212155 52.63686797 -29.3125 64.6875 C-35.18320643 73.99074537 -40.84411333 83.40377285 -46.4375 92.875 C-54.79403463 107.02143879 -63.339293 121.03714069 -72 135 C-73.29457543 137.09225948 -74.58884891 139.18470582 -75.8828125 141.27734375 C-78.9190322 146.18666019 -81.95816031 151.09416395 -85 156 C-87.97 155.01 -87.97 155.01 -91 154 C-90.4713792 147.41089385 -88.14366207 141.90175674 -85.59765625 135.84375 C-85.15989365 134.78265015 -84.72213104 133.72155029 -84.27110291 132.6282959 C-82.87578879 129.24901102 -81.46985674 125.87428527 -80.0625 122.5 C-78.66019833 119.12513214 -77.2602614 115.74932723 -75.86460876 112.3717041 C-74.99736979 110.27417365 -74.1261055 108.17830164 -73.2502594 106.08435059 C-71.18574852 101.10348801 -69.33606402 96.22589948 -68 91 C-68.7425 91.7425 -69.485 92.485 -70.25 93.25 C-71.1575 94.1575 -72.065 95.065 -73 96 C-74.0828125 97.1446875 -74.0828125 97.1446875 -75.1875 98.3125 C-77 100 -77 100 -79 100 C-79.99 101.98 -79.99 101.98 -81 104 C-81.66 104 -82.32 104 -83 104 C-83.99 105.98 -83.99 105.98 -85 108 C-85.66 108 -86.32 108 -87 108 C-87 108.66 -87 109.32 -87 110 C-88.46913624 111.44913197 -88.46913624 111.44913197 -90.50068665 113.13179016 C-94.87814297 116.85713315 -98.94134019 120.81349719 -102.98901367 124.89135742 C-103.74292892 125.64673294 -104.49684418 126.40210846 -105.27360535 127.18037415 C-106.89629125 128.80684094 -108.51782181 130.43446108 -110.13829613 132.06313133 C-112.70448908 134.64217192 -115.27386659 137.21800195 -117.84407043 139.79304504 C-123.29469932 145.25505607 -128.7413804 150.72099328 -134.1875 156.1875 C-140.51148579 162.53510919 -146.83709153 168.88108623 -153.16692543 175.22286415 C-155.69546866 177.75787908 -158.22097671 180.29589138 -160.74638367 182.83403015 C-162.29716423 184.38844335 -163.84808542 185.94271626 -165.39916992 187.49682617 C-166.09798279 188.20080536 -166.79679565 188.90478455 -167.51678467 189.63009644 C-170.87242833 192.98610313 -174.26110181 196.06619449 -178 199 C-178.556875 199.7425 -179.11375 200.485 -179.6875 201.25 C-180.120625 201.8275 -180.55375 202.405 -181 203 C-181.66 203 -182.32 203 -183 203 C-183.33 203.99 -183.66 204.98 -184 206 C-185.671875 207.6484375 -185.671875 207.6484375 -187.75 209.375 C-191.01141335 212.10114322 -194.00418875 214.98390975 -197 218 C-208 229 -219 240 -230 251 C-230.75587402 251.75732422 -231.51174805 252.51464844 -232.29052734 253.29492188 C-234.91530747 255.91544483 -237.55355046 258.52160884 -240.1953125 261.125 C-241.66825433 262.58320584 -243.14024262 264.04236675 -244.61181641 265.50195312 C-245.62241542 266.50244289 -246.63479471 267.50113751 -247.64892578 268.49804688 C-249.12751588 269.95227248 -250.59945584 271.412958 -252.0703125 272.875 C-252.94445801 273.73867188 -253.81860352 274.60234375 -254.71923828 275.4921875 C-256.88520704 277.87377935 -258.45986928 280.18347254 -260 283 C-261.98 282.67 -263.96 282.34 -266 282 C-266.2841179 277.24102516 -265.49054064 274.18430872 -263.5 269.875 C-262.94544972 268.64173132 -262.39352027 267.40728194 -261.84375 266.171875 C-261.54597656 265.50607422 -261.24820313 264.84027344 -260.94140625 264.15429688 C-259.20506949 260.18089553 -257.6052707 256.15274226 -256 252.125 C-255.65485352 251.26036133 -255.30970703 250.39572266 -254.95410156 249.50488281 C-252.75423514 243.96671388 -250.64390974 238.40316208 -248.58129883 232.8125 C-245.74462318 225.20020303 -242.7057357 217.66660449 -239.6875 210.125 C-239.41466187 209.44254211 -239.14182373 208.76008423 -238.86071777 208.0569458 C-234.18829054 196.37658109 -234.18829054 196.37658109 -233 194 C-250.33505054 193.8781993 -267.63400047 194.04140755 -284.96136475 194.57147217 C-299.97926722 195.02641714 -314.97508997 195.11490989 -330 195 C-330 192.69 -330 190.38 -330 188 C-310.80779833 181.44347255 -291.49139653 175.42730667 -272.05822754 169.63262939 C-266.3793258 167.93856917 -260.70236201 166.23803919 -255.02588081 164.53588867 C-253.06425151 163.94855068 -251.10187643 163.36376032 -249.13938904 162.77929688 C-247.9653804 162.42802734 -246.79137177 162.07675781 -245.58178711 161.71484375 C-244.54847763 161.40667725 -243.51516815 161.09851074 -242.45054626 160.78100586 C-240.02832949 160.07853842 -240.02832949 160.07853842 -238 159 C-239.485 158.01 -239.485 158.01 -241 157 C-241 156.34 -241 155.68 -241 155 C-241.59353271 154.88172852 -242.18706543 154.76345703 -242.79858398 154.64160156 C-246.42393074 153.58499612 -249.12845529 151.04672582 -252.0625 148.75 C-260.37835104 142.37547669 -268.96602403 136.46622818 -277.64404297 130.59912109 C-282.14969303 127.54088193 -286.62503443 124.43830679 -291.1015625 121.33764648 C-294.45108854 119.00442425 -294.45108854 119.00442425 -298 117 C-298 116.34 -298 115.68 -298 115 C-299.98 114.34 -301.96 113.68 -304 113 C-304 112.34 -304 111.68 -304 111 C-304.66773438 110.78472656 -305.33546875 110.56945312 -306.0234375 110.34765625 C-309.98071277 108.5559765 -313.18287709 106.06279101 -316.625 103.4375 C-317.94781225 102.43262235 -319.27323413 101.43116835 -320.6015625 100.43359375 C-321.47288818 99.76928345 -321.47288818 99.76928345 -322.36181641 99.09155273 C-324.12734656 97.81150387 -324.12734656 97.81150387 -327 97 C-327 96.34 -327 95.68 -327 95 C-328.32 94.67 -329.64 94.34 -331 94 C-330.67 91.69 -330.34 89.38 -330 87 C-326.82835063 85.97006835 -324.93004005 86.04819804 -321.75512695 87.01293945 C-320.91984467 87.26136093 -320.08456238 87.50978241 -319.22396851 87.76573181 C-318.32119171 88.04542313 -317.41841492 88.32511444 -316.48828125 88.61328125 C-315.06450668 89.04145897 -315.06450668 89.04145897 -313.61196899 89.47828674 C-310.50927094 90.41379774 -307.41102452 91.36326735 -304.3125 92.3125 C-302.18267552 92.95624247 -300.05254659 93.5989785 -297.92211914 94.24072266 C-288.99007805 96.93627574 -280.06845113 99.66536085 -271.1544342 102.41990662 C-268.11531172 103.35860683 -265.07475651 104.29262335 -262.03427124 105.22689819 C-259.9799043 105.86189304 -257.92898747 106.50720126 -255.87817383 107.15356445 C-254.03388794 107.72337036 -254.03388794 107.72337036 -252.15234375 108.3046875 C-251.10038818 108.63452637 -250.04843262 108.96436523 -248.96459961 109.30419922 C-242.27984042 110.87313306 -237.65419508 109.42370433 -231.46875 106.984375 C-230.62534058 106.66145477 -229.78193115 106.33853455 -228.91296387 106.00582886 C-227.07427801 105.30075526 -225.23730267 104.59120858 -223.40185547 103.87774658 C-218.36932502 101.92195689 -213.32418378 99.99907991 -208.28125 98.0703125 C-206.68011353 97.45626053 -206.68011353 97.45626053 -205.04663086 96.82980347 C-193.5620381 92.43186274 -182.02842503 88.16852968 -170.49060059 83.91262817 C-154.72461337 78.09680112 -138.96093545 72.27574067 -123.25 66.3125 C-122.09113281 65.87309082 -120.93226563 65.43368164 -119.73828125 64.98095703 C-114.79954688 63.15120333 -114.79954688 63.15120333 -110 61 C-122.15300301 61.52633537 -134.18272062 62.55817608 -146.26512146 63.95768929 C-149.17558745 64.29463047 -152.08675617 64.62482168 -154.99816895 64.95347595 C-162.21360219 65.76927067 -169.42780811 66.59569856 -176.64196777 67.42266846 C-182.77932839 68.12587042 -188.91717071 68.82454721 -195.05574036 69.51711845 C-197.90662968 69.84060749 -200.75670791 70.17066299 -203.60681152 70.50099182 C-205.36739384 70.70029553 -207.12801215 70.89928169 -208.88867188 71.09790039 C-209.66600677 71.18983673 -210.44334167 71.28177307 -211.24423218 71.37649536 C-216.80544261 71.9937937 -222.40691617 72.36826538 -228 72 C-229 71 -229 71 -229.0625 67.9375 C-229.041875 66.968125 -229.02125 65.99875 -229 65 C-215.42482802 61.3542441 -201.69925986 58.71750973 -187.89453125 56.10546875 C-185.43437564 55.63637444 -182.97430476 55.1668356 -180.51431274 54.69688416 C-175.30712482 53.70290378 -170.09946442 52.71146181 -164.8913269 51.72247314 C-156.77247147 50.18067194 -148.65475697 48.63292176 -140.53735352 47.08349609 C-139.86407025 46.95498292 -139.19078698 46.82646975 -138.49710119 46.69406223 C-135.10094323 46.04578937 -131.70480487 45.39741399 -128.30867958 44.74897003 C-125.59568995 44.23098963 -122.88265392 43.71325327 -120.16957664 43.19573212 C-102.83867638 39.88978777 -85.51216209 36.56245968 -68.1953125 33.18359375 C-67.27702604 33.00442854 -66.35873959 32.82526333 -65.41262627 32.64066887 C-57.0146458 31.00144269 -48.61767682 29.35708464 -40.22148514 27.70872211 C-37.2654754 27.12865872 -34.30922911 26.54980693 -31.35294724 25.97113228 C-29.39123551 25.5865154 -27.42993744 25.19979048 -25.46865845 24.81297302 C-11.10716844 22 -11.10716844 22 -6 22 C-4.28288757 19.55503957 -4.28288757 19.55503957 -3 17 C-4.299375 16.855625 -5.59875 16.71125 -6.9375 16.5625 C-10.875 16.125 -10.875 16.125 -12 15 C-12.04063832 13.33382885 -12.042721 11.66611905 -12 10 C-9.03 10 -6.06 10 -3 10 C-3.66 9.0925 -4.32 8.185 -5 7.25 C-7 4 -7 4 -7 0 C-3.84150454 -1.05283182 -2.969245 -1.29904469 0 0 Z " fill="#8F59FF" transform="translate(406,109)"/>
<path d="M0 0 C1.75 2.5625 1.75 2.5625 3 5 C3.86625 3.7934375 3.86625 3.7934375 4.75 2.5625 C6.97328219 0.03042862 7.7203912 -0.78135941 11 -1 C11.66 -0.67 12.32 -0.34 13 0 C13.20140476 3.62528568 12.85776765 5.86501708 11 9 C13.64 9.33 16.28 9.66 19 10 C19 11.98 19 13.96 19 16 C16.03 16.33 13.06 16.66 10 17 C10.7425 17.8353125 10.7425 17.8353125 11.5 18.6875 C13.24754367 21.38162983 13.26218749 22.85375007 13 26 C11.35 26.33 9.7 26.66 8 27 C6.68 25.02 5.36 23.04 4 21 C1.9754262 22.93254772 0.57894208 24.63158688 -1 27 C-2.65 26.67 -4.3 26.34 -6 26 C-7.65 28.64 -9.3 31.28 -11 34 C-11.33 33.34 -11.66 32.68 -12 32 C-11.06421005 29.64018187 -10.06652192 27.30368736 -9 25 C-12.96 25 -16.92 25 -21 25 C-21 24.67 -21 24.34 -21 24 C-16.75307069 22.80787949 -13.6189322 21.96956071 -9.1875 22.1875 C-7.6096875 22.0946875 -7.6096875 22.0946875 -6 22 C-3.99135641 19.6273026 -3.99135641 19.6273026 -3 17 C-4.299375 16.855625 -5.59875 16.71125 -6.9375 16.5625 C-10.875 16.125 -10.875 16.125 -12 15 C-12.04063832 13.33382885 -12.042721 11.66611905 -12 10 C-9.03 10 -6.06 10 -3 10 C-3.99 8.63875 -3.99 8.63875 -5 7.25 C-7 4 -7 4 -7 0 C-3.84150454 -1.05283182 -2.969245 -1.29904469 0 0 Z " fill="#925CFF" transform="translate(406,109)"/>
<path d="M0 0 C1.32 0.66 2.64 1.32 4 2 C0.8405654 5.51902286 -2.80322983 6.40540391 -7.234375 7.671875 C-8.05576462 7.91502441 -8.87715424 8.15817383 -9.72343445 8.40869141 C-12.39645361 9.19793511 -15.07315368 9.97384706 -17.75 10.75 C-19.59283706 11.29224942 -21.43536601 11.83554705 -23.27758789 12.37988281 C-26.89821322 13.44880242 -30.52002139 14.51353008 -34.14306641 15.57421875 C-39.91790415 17.2666299 -45.68119053 18.99563099 -51.4375 20.75 C-52.29923828 21.01143799 -53.16097656 21.27287598 -54.04882812 21.54223633 C-58.99116393 23.05058126 -63.91498452 24.61031901 -68.83203125 26.19921875 C-69.98453369 26.57143555 -71.13703613 26.94365234 -72.32446289 27.32714844 C-74.55817917 28.0511839 -76.79051458 28.77949763 -79.02124023 29.51269531 C-80.01969971 29.8372168 -81.01815918 30.16173828 -82.046875 30.49609375 C-83.37477051 30.93199829 -83.37477051 30.93199829 -84.72949219 31.37670898 C-87 32 -87 32 -90 32 C-90 33.65 -90 35.3 -90 37 C-88.77539062 36.86722656 -87.55078125 36.73445313 -86.2890625 36.59765625 C-70.85266303 35.08560083 -55.4380075 34.66758472 -39.9375 34.375 C-38.8883844 34.35462677 -37.8392688 34.33425354 -36.75836182 34.31326294 C-21.50487514 34.02545289 -6.2559524 33.94976892 9 34 C9 35.32 9 36.64 9 38 C8.34 38 7.68 38 7 38 C6.896875 38.70125 6.79375 39.4025 6.6875 40.125 C5.90640997 43.39137647 4.57941257 46.0471852 3 49 C2 47 2 47 2.77734375 44.6171875 C3.16019531 43.71226562 3.54304688 42.80734375 3.9375 41.875 C4.31777344 40.96492188 4.69804687 40.05484375 5.08984375 39.1171875 C5.39019531 38.41851562 5.69054687 37.71984375 6 37 C-11.33505054 36.8781993 -28.63400047 37.04140755 -45.96136475 37.57147217 C-60.97926722 38.02641714 -75.97508997 38.11490989 -91 38 C-91 35.69 -91 33.38 -91 31 C-71.80779833 24.44347255 -52.49139653 18.42730667 -33.05822754 12.63262939 C-27.3793258 10.93856917 -21.70236201 9.23803919 -16.02588081 7.53588867 C-14.06425151 6.94855068 -12.10187643 6.36376032 -10.13938904 5.77929688 C-8.9653804 5.42802734 -7.79137177 5.07675781 -6.58178711 4.71484375 C-5.54847763 4.40667725 -4.51516815 4.09851074 -3.45054626 3.78100586 C-1.02832949 3.07853842 -1.02832949 3.07853842 1 2 C0.505 1.01 0.505 1.01 0 0 Z " fill="#EBE0FF" transform="translate(167,266)"/>
<path d="M0 0 C-6.42039784 4.28026523 -12.4843029 6.39829406 -20 8 C-20.99 7.67 -21.98 7.34 -23 7 C-21.68 6.34 -20.36 5.68 -19 5 C-29.9887315 5.50605142 -40.883232 6.29430114 -51.80752945 7.58729744 C-54.08734429 7.85706722 -56.36787119 8.11997623 -58.64865112 8.38145447 C-63.47478866 8.9359459 -68.29992965 9.49880947 -73.125 10.0625 C-78.76177541 10.72026587 -84.39893551 11.37444409 -90.03695297 12.02148247 C-92.26851449 12.27917481 -94.4993786 12.54237694 -96.73025513 12.80592346 C-103.17745455 13.55506532 -109.5032949 14.23056213 -116 14 C-116 13.67 -116 13.34 -116 13 C-100.36038497 10.79036632 -84.7234171 8.76418728 -69 7.25 C-67.69023193 7.12262451 -66.38046387 6.99524902 -65.03100586 6.86401367 C-59.66147604 6.36093974 -54.39706232 5.93324473 -49 6 C-49 5.34 -49 4.68 -49 4 C-48.26587891 3.9498877 -47.53175781 3.89977539 -46.77539062 3.84814453 C-27.90999855 2.56667311 -27.90999855 2.56667311 -9.13671875 0.3671875 C-6.0589082 0.00689585 -3.0955521 -0.06556389 0 0 Z " fill="#DDCCFF" transform="translate(315,165)"/>
<path d="M0 0 C-0.33 0.66 -0.66 1.32 -1 2 C-3.01953125 2.4921875 -3.01953125 2.4921875 -5.8125 2.875 C-11.33589209 3.70773756 -16.78225084 4.74509918 -22.25 5.875 C-29.70526693 7.39907139 -37.17595247 8.72273905 -44.6875 9.9375 C-55.0362256 11.61852392 -65.30166484 13.60716868 -75.57421875 15.69921875 C-82.4363718 17.09629744 -89.31035402 18.42895812 -96.1875 19.75 C-97.8269458 20.06602173 -97.8269458 20.06602173 -99.49951172 20.38842773 C-104.32492485 21.31429108 -109.14685146 22.22886068 -114 23 C-114 24.65 -114 26.3 -114 28 C-114.33 28 -114.66 28 -115 28 C-115 26.02 -115 24.04 -115 22 C-102.44800815 18.67451717 -89.8032333 16.10039801 -77.05078125 13.671875 C-74.97807414 13.27428725 -72.90541779 12.87643482 -70.83280945 12.47833252 C-66.52459321 11.65189055 -62.21577688 10.8286747 -57.90649414 10.0078125 C-52.38640262 8.95602498 -46.86794232 7.89593775 -41.34989643 6.83347702 C-37.08606512 6.0134595 -32.82140432 5.19782601 -28.5564785 4.38352203 C-26.52006148 3.99415398 -24.48390628 3.60341399 -22.44802284 3.21126556 C-19.61372194 2.66599648 -16.77835584 2.12665327 -13.94262695 1.58886719 C-13.10677063 1.42683807 -12.27091431 1.26480896 -11.409729 1.09786987 C-7.55218437 0.37248188 -3.94663856 -0.20190647 0 0 Z " fill="#ECE2FF" transform="translate(292,152)"/>
<path d="M0 0 C1.75 2.5625 1.75 2.5625 3 5 C3.86625 3.7934375 3.86625 3.7934375 4.75 2.5625 C6.97328219 0.03042862 7.7203912 -0.78135941 11 -1 C11.66 -0.67 12.32 -0.34 13 0 C13.20140476 3.62528568 12.85776765 5.86501708 11 9 C13.64 9.33 16.28 9.66 19 10 C19 11.98 19 13.96 19 16 C16.03 16.33 13.06 16.66 10 17 C10.7425 17.8353125 10.7425 17.8353125 11.5 18.6875 C13.24754367 21.38162983 13.26218749 22.85375007 13 26 C10.17825529 24.58912765 10.06230199 22.92133047 9 20 C8.34 18.35 7.68 16.7 7 15 C10.63 15 14.26 15 18 15 C18 14.01 18 13.02 18 12 C14.37 12 10.74 12 7 12 C9 7 9 7 11 2 C10.01 1.67 9.02 1.34 8 1 C7.731875 1.763125 7.46375 2.52625 7.1875 3.3125 C6.0387516 5.91229902 5.0314124 7.10215992 3 9 C2.51080078 8.25943359 2.51080078 8.25943359 2.01171875 7.50390625 C1.35623047 6.54291016 1.35623047 6.54291016 0.6875 5.5625 C0.04361328 4.60537109 0.04361328 4.60537109 -0.61328125 3.62890625 C-2.0034052 1.7114316 -2.0034052 1.7114316 -5 1 C-4.6390625 1.62648438 -4.278125 2.25296875 -3.90625 2.8984375 C-3.4421875 3.71570313 -2.978125 4.53296875 -2.5 5.375 C-2.0359375 6.18710938 -1.571875 6.99921875 -1.09375 7.8359375 C0 10 0 10 0 12 C-3.63 12 -7.26 12 -11 12 C-11.33 12.99 -11.66 13.98 -12 15 C-12 13.35 -12 11.7 -12 10 C-9.03 10 -6.06 10 -3 10 C-3.99 8.63875 -3.99 8.63875 -5 7.25 C-7 4 -7 4 -7 0 C-3.84150454 -1.05283182 -2.969245 -1.29904469 0 0 Z " fill="#EDE4FF" transform="translate(406,109)"/>
<path d="M0 0 C0 1.32 0 2.64 0 4 C-0.66 4 -1.32 4 -2 4 C-2.103125 4.70125 -2.20625 5.4025 -2.3125 6.125 C-3.09359003 9.39137647 -4.42058743 12.0471852 -6 15 C-6.495 14.01 -6.495 14.01 -7 13 C-5.68 9.7 -4.36 6.4 -3 3 C-31.38 3 -59.76 3 -89 3 C-89 2.67 -89 2.34 -89 2 C-76.95018469 1.01012 -64.90954636 0.71753757 -52.82446289 0.49731445 C-49.59966899 0.43818157 -46.3750461 0.37285178 -43.15039062 0.30664062 C-28.76571536 0.02339518 -14.38723269 -0.05557085 0 0 Z " fill="#BE9EFF" transform="translate(176,300)"/>
<path d="M0 0 C3.63 0 7.26 0 11 0 C11 0.99 11 1.98 11 3 C12.32 2.67 13.64 2.34 15 2 C18.22265625 7.2734375 18.22265625 7.2734375 19 9 C18.67 9.66 18.34 10.32 18 11 C16.68 9.35 15.36 7.7 14 6 C12.02 8.97 12.02 8.97 10 12 C7.525 11.505 7.525 11.505 5 11 C3.35 13.64 1.7 16.28 0 19 C-0.33 18.34 -0.66 17.68 -1 17 C-0.06421005 14.64018187 0.93347808 12.30368736 2 10 C-1.96 10 -5.92 10 -10 10 C-10 9.67 -10 9.34 -10 9 C-5.75307069 7.80787949 -2.6189322 6.96956071 1.8125 7.1875 C3.3903125 7.0946875 3.3903125 7.0946875 5 7 C7.00864359 4.6273026 7.00864359 4.6273026 8 2 C5.36 1.67 2.72 1.34 0 1 C0 0.67 0 0.34 0 0 Z " fill="#C6A9FF" transform="translate(395,124)"/>
<path d="M0 0 C-0.33 0.66 -0.66 1.32 -1 2 C-3.1953125 2.52734375 -3.1953125 2.52734375 -6.125 2.9375 C-12.3608092 3.87100437 -18.48746285 5.10459253 -24.65234375 6.4140625 C-27.53469086 6.91855733 -30.08722801 7.12159579 -33 7 C-32.67 6.34 -32.34 5.68 -32 5 C-29.48730469 4.31396484 -29.48730469 4.31396484 -26.171875 3.7109375 C-24.97949219 3.49179688 -23.78710938 3.27265625 -22.55859375 3.046875 C-21.30175781 2.82515625 -20.04492188 2.6034375 -18.75 2.375 C-17.50863281 2.14554688 -16.26726562 1.91609375 -14.98828125 1.6796875 C-4.87918373 -0.14843778 -4.87918373 -0.14843778 0 0 Z " fill="#E0D1FF" transform="translate(292,152)"/>
<path d="M0 0 C0.33 0.99 0.66 1.98 1 3 C1.99 3.66 2.98 4.32 4 5 C1.525 4.505 1.525 4.505 -1 4 C-2.65 6.64 -4.3 9.28 -6 12 C-6.33 11.34 -6.66 10.68 -7 10 C-6.06421005 7.64018187 -5.06652192 5.30368736 -4 3 C-7.96 3 -11.92 3 -16 3 C-16 2.67 -16 2.34 -16 2 C-10.42932723 0.40837921 -5.78898419 -0.20674944 0 0 Z " fill="#E1D1FF" transform="translate(401,131)"/>
<path d="M0 0 C-0.63808594 0.27714844 -1.27617187 0.55429688 -1.93359375 0.83984375 C-2.75988281 1.20207031 -3.58617187 1.56429687 -4.4375 1.9375 C-5.26121094 2.29714844 -6.08492187 2.65679687 -6.93359375 3.02734375 C-8.94410117 3.83122323 -8.94410117 3.83122323 -10 5 C-15.52479577 5.2857653 -19.76465209 4.74511597 -25 3 C-25 2.34 -25 1.68 -25 1 C-25.66 0.67 -26.32 0.34 -27 0 C-26.02160156 0.2165625 -26.02160156 0.2165625 -25.0234375 0.4375 C-17.42367477 2.0516089 -12.04627919 2.76018307 -4.83203125 -0.44140625 C-3 -1 -3 -1 0 0 Z " fill="#D4BEFF" transform="translate(177,217)"/>
<path d="M0 0 C1.59416232 5.36739545 -0.52677796 9.14852698 -3 13.9375 C-4.87184345 17.56245056 -6.01172868 21.04691472 -7 25 C-7.66 25 -8.32 25 -9 25 C-8.38965243 21.51423718 -7.48391539 18.4128077 -6.15234375 15.13671875 C-5.61577148 13.80737305 -5.61577148 13.80737305 -5.06835938 12.45117188 C-4.50858398 11.0831543 -4.50858398 11.0831543 -3.9375 9.6875 C-3.56044922 8.75615234 -3.18339844 7.82480469 -2.79492188 6.86523438 C-1.86716875 4.57521083 -0.93541999 2.28690004 0 0 Z " fill="#D6C1FF" transform="translate(338,202)"/>
<path d="M0 0 C-2.9689841 2.9689841 -6.46037819 3.24830209 -10.46875 4.21875 C-13.13824211 4.82682808 -13.13824211 4.82682808 -15 7 C-17.1640625 7.4140625 -17.1640625 7.4140625 -19.625 7.625 C-20.44226563 7.69976562 -21.25953125 7.77453125 -22.1015625 7.8515625 C-22.72804687 7.90054688 -23.35453125 7.94953125 -24 8 C-20.82981975 4.82981975 -16.72115084 3.8394807 -12.5625 2.3125 C-11.69044922 1.97927734 -10.81839844 1.64605469 -9.91992188 1.30273438 C-9.08138672 0.99271484 -8.24285156 0.68269531 -7.37890625 0.36328125 C-6.6113501 0.07751221 -5.84379395 -0.20825684 -5.05297852 -0.50268555 C-3 -1 -3 -1 0 0 Z " fill="#DDCCFF" transform="translate(257,187)"/>
<path d="M0 0 C4 4.75 4 4.75 4 7 C0.37 7 -3.26 7 -7 7 C-7.33 7.99 -7.66 8.98 -8 10 C-8 8.35 -8 6.7 -8 5 C-5.03 5 -2.06 5 1 5 C0.67 3.35 0.34 1.7 0 0 Z " fill="#DFCFFF" transform="translate(402,114)"/>
<path d="M0 0 C0.66 0.33 1.32 0.66 2 1 C2 1.33 2 1.66 2 2 C4.64 2.33 7.28 2.66 10 3 C10 3.66 10 4.32 10 5 C6.04 5 2.08 5 -2 5 C-1.34 3.35 -0.68 1.7 0 0 Z " fill="#E2D3FF" transform="translate(415,116)"/>
<path d="M0 0 C-5.37899794 3.54784971 -9.58076669 4.70887831 -16 5 C-13.32975467 3.21983645 -10.94969139 2.02836981 -8 0.8125 C-7.13375 0.44769531 -6.2675 0.08289063 -5.375 -0.29296875 C-3 -1 -3 -1 0 0 Z " fill="#D6C1FF" transform="translate(292,174)"/>
<path d="M0 0 C-0.33 0.66 -0.66 1.32 -1 2 C-4.14930893 3.04976964 -6.38814456 3.10131595 -9.6875 3.0625 C-10.68136719 3.05347656 -11.67523438 3.04445312 -12.69921875 3.03515625 C-13.83810547 3.01775391 -13.83810547 3.01775391 -15 3 C-15 2.67 -15 2.34 -15 2 C-13.43883181 1.66048381 -11.87598662 1.32867456 -10.3125 1 C-9.44238281 0.814375 -8.57226562 0.62875 -7.67578125 0.4375 C-5.06287036 0.01027953 -2.64186962 -0.07616201 0 0 Z " fill="#D6C1FF" transform="translate(385,134)"/>
<path d="M0 0 C-6 4 -6 4 -7.9375 3.75 C-10.05674028 2.97936717 -12.01322958 2.0643413 -14 1 C-9.27616037 0.34843591 -4.78025483 -0.11950637 0 0 Z " fill="#BC9AFF" transform="translate(315,165)"/>
<path d="M0 0 C1.98 0.66 3.96 1.32 6 2 C5.67 3.32 5.34 4.64 5 6 C4.01 6 3.02 6 2 6 C1.34 4.02 0.68 2.04 0 0 Z " fill="#AC83FF" transform="translate(412,130)"/>
<path d="M0 0 C0.33 0.66 0.66 1.32 1 2 C0.06421005 4.35981813 -0.93347808 6.69631264 -2 9 C-2.99 7.68 -3.98 6.36 -5 5 C-3.35 3.35 -1.7 1.7 0 0 Z " fill="#EEE6FF" transform="translate(342,193)"/>
</svg>
